<?xml version="1.0" encoding="utf-8" ?>
<svg baseProfile="full" height="300mm" version="1.1" viewBox="0,0,200,300" width="200mm" xmlns="http://www.w3.org/2000/svg" xmlns:ev="http://www.w3.org/2001/xml-events" xmlns:xlink="http://www.w3.org/1999/xlink"><defs /><rect fill="#222222" height="300" width="200" x="0" y="0" /><text fill="#FFFFFF" style="font-size:12px; font-family:Arial; font-weight:bold;" x="10" y="20">Over 10km Runs</text><text fill="#FFFFFF" style="font-size:4px; font-family:Arial" x="10" y="280">ATHLETE</text><text fill="#FFFFFF" style="font-size:9px; font-family:Arial" x="10" y="290">Siddhartha</text><text fill="#FFFFFF" style="font-size:4px; font-family:Arial" x="120" y="280">STATISTICS</text><text fill="#FFFFFF" style="font-size:3px; font-family:Arial" x="120" y="285">Number: 1</text><text fill="#FFFFFF" style="font-size:3px; font-family:Arial" x="120" y="290">Weekly: 1.0</text><text fill="#FFFFFF" style="font-size:3px; font-family:Arial" x="141" y="285">Total: 10.6 km</text><text fill="#FFFFFF" style="font-size:3px; font-family:Arial" x="141" y="290">Avg: 10.6 km</text><text fill="#FFFFFF" style="font-size:3px; font-family:Arial" x="167" y="285">Min: 10.6 km</text><text fill="#FFFFFF" style="font-size:3px; font-family:Arial" x="167" y="290">Max: 10.6 km</text><polyline fill="none" points="164.40252663148567,179.97903130447958 166.21186109259725,179.97903130447958 165.77175271022134,181.73494966415456 167.1898797203321,181.93562589160865 65.1336359239649,101.96360479440773 63.32430146285333,98.40136968455045 32.81012027990073,69.0 111.98072818899527,105.87703450437402 97.1637459800113,116.01175718137529 91.68684166506864,117.86810839141253 79.8528162704315,125.2433144064853 128.75374765344895,219.76252134738024 122.83673495589755,219.71235380630242 120.68509397516027,220.6655367431813 120.34278745530173,221.5183840203681 122.64113123039715,227.28762979002204 121.22300422051921,225.8829463061993 121.22300422051921,230.44816187996184 120.24498559278436,231.0 121.80981539702043,229.99665778293274 122.24992377916351,228.69231170153944 123.08123961300589,223.9765876348829 122.54332936764695,223.17390943295322 123.619149858132,221.66888642078266 123.08123961300589,219.9631914915517 123.37464520102367,222.17056095873704 122.15212191664614,222.87290497502545 123.52134799514897,221.71905388362939 123.03233868163079,220.06352655147202 126.30870108422823,219.91302395844832 123.17904147552326,222.47156558535062 122.10322098527104,224.879599998123 119.07136323931627,224.92976733256364 120.73399490630254,226.4347864338779 120.68509397516027,229.24415059376042 122.005419122288,229.64548781746998 122.78783402452245,224.52842860057717 126.4554038781207,220.61536923830863" stroke="#4DD2FF" stroke-linecap="round" stroke-linejoin="round" stroke-width="0.5"><title>2021-02-03 10.6km</title></polyline></svg>